<?xml version="1.0" standalone="no"?>
<!DOCTYPE svg PUBLIC "-//W3C//DTD SVG 20010904//EN"
 "http://www.w3.org/TR/2001/REC-SVG-20010904/DTD/svg10.dtd">
<svg version="1.0" xmlns="http://www.w3.org/2000/svg"
 width="1024.000000pt" height="1024.000000pt" viewBox="0 0 1024.000000 1024.000000"
 preserveAspectRatio="xMidYMid meet">
<metadata>
Created by potrace 1.14, written by Peter Selinger 2001-2017
</metadata>
<g transform="translate(0.000000,1024.000000) scale(0.100000,-0.100000)"
fill="#000000" stroke="none">
<path d="M3005 10180 c-44 -33 -85 -63 -90 -68 -6 -5 -33 -24 -60 -43 -28 -19
-102 -73 -165 -120 -63 -47 -137 -101 -164 -120 -89 -63 -104 -73 -258 -186
-84 -62 -211 -155 -283 -207 -71 -52 -141 -103 -155 -113 -14 -11 -265 -194
-558 -407 -292 -213 -532 -391 -532 -394 0 -4 -4 -65 -8 -137 -14 -269 -7
-1087 13 -1270 2 -22 7 -78 10 -125 3 -47 8 -98 10 -115 3 -28 11 -99 21 -200
14 -144 50 -396 90 -618 12 -73 64 -328 79 -392 9 -38 18 -78 20 -87 12 -60
88 -345 96 -360 5 -10 8 -18 5 -18 -3 0 -1 -12 4 -27 5 -16 23 -75 40 -133 58
-189 107 -332 208 -606 83 -224 325 -750 441 -959 19 -33 47 -85 64 -115 48
-88 166 -288 225 -380 68 -106 225 -343 232 -350 3 -3 28 -36 55 -75 88 -126
346 -460 375 -485 4 -3 13 -14 21 -26 32 -47 276 -319 414 -462 86 -90 286
-288 351 -348 187 -175 271 -248 435 -384 74 -61 141 -116 149 -123 21 -17
153 -120 165 -129 6 -5 44 -34 84 -65 41 -32 101 -76 132 -98 32 -22 122 -85
201 -141 169 -119 437 -294 450 -294 5 0 21 9 36 19 15 10 95 63 177 116 320
207 745 523 1008 748 185 158 227 195 266 231 191 175 472 453 606 601 50 54
107 117 127 140 214 236 497 603 717 930 453 674 824 1456 1062 2240 22 72 41
137 44 145 2 8 20 76 40 150 20 74 38 142 40 150 2 8 13 53 24 100 11 47 22
97 25 110 3 14 16 77 30 140 13 63 27 133 30 154 4 21 8 48 11 60 3 12 7 35
10 51 3 17 10 59 16 95 6 36 13 76 14 90 2 14 6 39 9 55 3 17 8 51 11 76 3 26
8 58 10 70 3 13 7 49 10 79 3 30 8 66 10 80 3 14 7 54 11 90 3 36 7 77 9 91 2
14 6 66 10 115 4 49 9 100 11 114 13 107 19 362 19 815 0 640 -1 662 -29 686
-12 10 -201 149 -421 308 -220 160 -409 297 -420 305 -11 8 -308 224 -660 480
-352 256 -645 469 -650 473 -17 14 -118 88 -152 111 l-31 22 -64 -58 c-251
-223 -579 -424 -881 -538 -166 -63 -399 -130 -517 -149 -25 -4 -54 -9 -65 -11
-44 -9 -73 -13 -125 -19 -30 -3 -89 -10 -130 -14 -72 -8 -458 -7 -530 2 -19 2
-66 8 -105 12 -38 4 -72 9 -75 10 -3 2 -26 6 -50 10 -25 3 -52 8 -60 10 -8 2
-29 7 -45 9 -65 11 -228 56 -345 95 -373 125 -723 329 -1017 594 -29 26 -54
47 -56 47 -1 0 -38 -27 -82 -60z"/>
</g>
</svg>
